<?xml version="1.0" encoding="utf-8"?>
<!DOCTYPE svg PUBLIC "-//W3C//DTD SVG 1.1 Basic//EN" "http://www.w3.org/Graphics/SVG/1.1/DTD/svg11-basic.dtd">
<svg version="1.1" baseProfile="basic" xmlns="http://www.w3.org/2000/svg" xmlns:xlink="http://www.w3.org/1999/xlink" x="0px"
	 y="0px" width="2200px" height="250px" viewBox="0 0 2200 250" xml:space="preserve">
<style type="text/css">
<![CDATA[
	.st0{fill:#EA601C;}
	.st1{fill:#1C1C1B;}
	.st2{fill:#1D1D1B;}
	.st3{fill:#C8201B;}
	.st4{fill:#FFD300;}
	.st5{fill:#FFFFFF;}
	.st6{fill:#9C9B9B;}
	.st7{fill:#007CC0;}
	.st8{fill:#72B533;}
]]>
</style>
<g id="WHITE">
	<path class="st5" d="M1740.292,227.025l-54.405-113.002l-54.948,113.002l-76.034-197.084h44.271l36.704,98.674l50.007-103.641
		l49.986,103.641l37.492-98.674h43.749L1740.292,227.025z"/>
	<path class="st5" d="M1882.806,107.79h91.104v35.916h-91.104v40.62h103.09v35.677h-144.233V29.679h144.233v35.652h-103.09V107.79z"
		/>
	<path class="st5" d="M2141.14,120.542c16.932,5.708,31.762,23.954,31.762,44.25c0,42.436-32.284,55.211-66.648,55.211h-82.268
		V29.679h79.139c36.967,0,61.968,13.802,61.968,52.846C2165.092,99.695,2155.208,114.811,2141.14,120.542z M2103.913,105.187
		c14.59,0,19.771-11.223,19.771-21.11c0-9.885-8.596-18.745-19.508-18.745h-38.807v39.855H2103.913z M2131.779,162.714
		c0-11.46-8.596-21.61-26.313-21.61h-40.096v43.223h40.884C2123.183,184.326,2131.779,173.915,2131.779,162.714z"/>
	<path class="st5" d="M109.795,105.665v-0.212V44.408c0-2.781,1.004-5.177,3.019-7.188c2.017-2.011,4.486-3.024,7.399-3.024v-8.333
		h-10.418c-5.14,0-9.516,1.808-13.128,5.415c-3.611,3.612-5.415,7.988-5.415,13.13v61.256c0,1.393-0.074,2.918-0.208,4.579
		c-0.14,1.672-0.521,3.197-1.146,4.589c-0.627,1.393-1.667,2.573-3.125,3.541c-1.459,0.973-3.442,1.459-5.94,1.459v0.081H59.037
		v8.238h21.797v0.02c2.635,0,4.653,0.481,6.042,1.453c1.385,0.973,2.396,2.188,3.023,3.648c0.624,1.459,1.005,3.055,1.146,4.792
		c0.134,1.737,0.208,3.302,0.208,4.686v60.841v0.213v0.202c0.134,5.146,1.979,9.452,5.521,12.922
		c3.543,3.47,7.882,5.208,13.021,5.208h10.418v-8.13c-2.914,0-5.383-1.004-7.399-3.015c-2.015-2.016-3.019-4.478-3.019-7.4V142.75
		v-0.203c0-5.136-1.807-9.519-5.416-13.13c-3.615-3.617-7.99-5.42-13.127-5.42c5.137,0,9.481-1.773,13.021-5.309
		C107.815,115.143,109.655,110.801,109.795,105.665z"/>
</g>
<g id="LOGO">
	<g id="LOGO_9_">
		<path class="st2" d="M62.102,34.196c-4.442,0-8.301,1.601-11.563,4.792c-3.266,3.196-4.897,7.016-4.897,11.463v0.202v146.899
			c0,4.585,1.631,8.475,4.897,11.666c3.262,3.196,7.121,4.787,11.563,4.787v8.13c-4.866,0-9.411-0.902-13.649-2.706
			c-4.235-1.808-7.953-4.311-11.148-7.501c-3.195-3.196-5.698-6.879-7.499-11.043c-1.807-4.164-2.708-8.688-2.708-13.545V60.866
			c0-4.863,0.902-9.412,2.708-13.646c1.801-4.239,4.304-7.953,7.499-11.149c3.195-3.191,6.913-5.694,11.148-7.502
			c4.238-1.803,8.783-2.705,13.649-2.705V34.196z"/>
		<path class="st2" d="M255.919,213.803c4.447,0,8.308-1.601,11.57-4.791c3.267-3.196,4.898-7.017,4.898-11.459v-0.213V50.451
			c0-4.584-1.632-8.479-4.898-11.676c-3.262-3.191-7.123-4.792-11.57-4.792v-8.12c4.863,0,9.411,0.902,13.652,2.705
			c4.24,1.808,7.948,4.311,11.148,7.502c3.192,3.196,5.694,6.91,7.502,11.149c1.803,4.235,2.705,8.717,2.705,13.434v126.485
			c0,4.853-0.902,9.4-2.705,13.641c-1.808,4.24-4.31,7.953-7.502,11.149c-3.201,3.19-6.909,5.693-11.148,7.501
			c-4.241,1.804-8.789,2.706-13.652,2.706V213.803z"/>
		<path class="st2" d="M249.461,213.61h-14.219v-0.091c-1.803,0-3.303-0.593-4.478-1.784c-1.18-1.169-1.773-2.599-1.773-4.265
			V25.863h-24.793v8.333c1.666,0,3.09,0.587,4.269,1.768c1.18,1.19,1.844,2.608,1.98,4.27V213.52h-28.025
			c-4.444,0-8.267-1.601-11.462-4.798c-3.195-3.196-4.792-7.011-4.792-11.463V25.863h-24.793v8.333c1.667,0,3.09,0.587,4.273,1.768
			c1.178,1.19,1.836,2.608,1.977,4.27v146.615c0,4.857,0.902,9.407,2.71,13.642c1.803,4.245,4.306,7.959,7.5,11.144
			c3.192,3.197,6.874,5.705,11.045,7.508c4.165,1.809,8.676,2.705,13.542,2.705h52.821v-0.005h14.219V213.61z"/>
	</g>
	<g id="KARLITO_9_">
		<path class="st2" d="M389.623,219.233h-40.676V31.081h40.676v78.494l73.371-78.494h50.45l-77.502,79.793l80.832,108.36h-49.931
			l-58.948-80.055l-18.271,19.053V219.233z"/>
		<path class="st2" d="M619.022,25.154l103.212,194.079h-44.501l-14.943-28.849h-87.772l-14.401,28.849h-44.791L619.022,25.154z
			 M643.22,155.635l-24.197-49.153l-23.915,49.153H643.22z"/>
		<path class="st2" d="M733.401,219.233V31.081h83.618c40.44,0,67.966,26.748,67.966,65.367c0,27.269-14.92,49.695-38.362,59.729
			c16.219,20.326,33.451,42.966,48.679,63.057h-48.679c-15.439-19.313-29.604-38.104-45.043-58.689h-27.786v58.689H733.401z
			 M817.019,125.273c12.606,0,27.55-9.277,27.55-28.826c0-9.771-3.612-30.122-27.55-30.122h-43.226v58.948H817.019z"/>
		<path class="st2" d="M1060.31,219.233H920.821V31.081h40.934v152.882h98.556V219.233z"/>
		<path class="st2" d="M1089.984,219.233V31.081h40.653v188.153H1089.984z"/>
		<path class="st2" d="M1252.405,66.326v152.908h-40.889V66.326h-54.84V31.081h150.309v35.245H1252.405z"/>
		<path class="st2" d="M1318.105,125.015c0-53.519,45.279-97.548,101.158-97.548c56.115,0,101.677,44.029,101.677,97.548
			c0,54.061-45.562,97.83-101.677,97.83C1363.384,222.845,1318.105,179.075,1318.105,125.015z M1358.497,125.015
			c0,32.438,27.291,61.001,60.767,61.001c33.712,0,60.741-28.563,60.741-61.001c0-32.154-27.029-60.484-60.741-60.484
			C1385.788,64.531,1358.497,92.86,1358.497,125.015z"/>
	</g>
</g>
</svg>
