<?xml version="1.0" encoding="utf-8"?>
<!DOCTYPE svg PUBLIC "-//W3C//DTD SVG 1.0//EN" "http://www.w3.org/TR/2001/REC-SVG-20010904/DTD/svg10.dtd">
<svg version="1.0" xmlns="http://www.w3.org/2000/svg" xmlns:xlink="http://www.w3.org/1999/xlink" x="0px" y="0px" width="2048px" height="2048px" viewBox="0 0 2048 2048" enable-background="new 0 0 2048 2048" xml:space="preserve">
	<g>
		<rect id="dark" style="fill:#1D1D1B;" width="2048" height="2048"/>
	</g>
	<g>
		<path id="Orange" fill="#EA601C" d="M680.21,897.94v-1.49V470.07c0-19.42,7.02-36.16,21.09-50.21
			c14.08-14.05,31.33-21.12,51.69-21.12v-58.2h-72.78c-35.89,0-66.46,12.63-91.69,37.82c-25.23,25.23-37.82,55.8-37.82,91.71v427.87
			c0,9.73-0.51,20.38-1.45,31.98c-0.99,11.68-3.64,22.32-8.01,32.05c-4.37,9.73-11.64,17.97-21.81,24.73
			c-10.19,6.79-24.04,10.19-41.5,10.19v0.57H325.67v57.53h152.25v0.14c18.42,0,32.52,3.36,42.21,10.16
			c9.68,6.79,16.73,15.29,21.1,25.47c4.37,10.19,7.02,21.33,8.01,33.47c0.94,12.13,1.45,23.07,1.45,32.73v424.97v1.48v1.42
			c0.94,35.95,13.82,66.02,38.57,90.26c24.75,24.24,55.05,36.37,90.95,36.37h72.78v-56.79c-20.36,0-37.61-7.01-51.69-21.05
			c-14.06-14.08-21.09-31.28-21.09-51.69v-424.97v-1.42c0-35.88-12.61-66.48-37.82-91.71c-25.24-25.27-55.81-37.86-91.69-37.86
			c35.88,0,66.22-12.38,90.95-37.08C666.38,964.13,679.24,933.81,680.21,897.94z"/>
		<g id="Plot">
			<path id="_x3C_Plot_x3E__1_" fill="#FFFFFF" d="M347.08,398.74c-31.03,0-57.97,11.18-80.76,33.47
				c-22.82,22.32-34.21,49-34.21,80.07v1.41v1026.07c0,32.02,11.39,59.19,34.21,81.48c22.79,22.32,49.73,33.44,80.76,33.44v56.79
				c-33.98,0-65.72-6.3-95.34-18.89c-29.58-12.63-55.55-30.11-77.86-52.4c-22.33-22.33-39.8-48.05-52.38-77.13
				c-12.61-29.08-18.91-60.68-18.91-94.61v-883.4c0-33.97,6.3-65.74,18.91-95.32c12.58-29.61,30.06-55.55,52.38-77.87
				c22.31-22.29,48.28-39.77,77.86-52.4c29.61-12.6,61.35-18.89,95.34-18.89V398.74z"/>
			<path id="_x3C_Plot_x3E_" fill="#FFFFFF" d="M1700.89,1653.26c31.07,0,57.99-11.18,80.81-33.47
				c22.79-22.32,34.18-49,34.18-80.03v-1.49V512.28c0-32.02-11.39-59.23-34.18-81.56c-22.82-22.29-49.75-33.47-80.81-33.47v-56.72
				c33.97,0,65.74,6.3,95.32,18.89c29.61,12.63,55.55,30.11,77.88,52.4c22.33,22.32,39.8,48.26,52.43,77.87
				c12.6,29.58,18.89,60.89,18.89,93.83v883.48c0,33.9-6.3,65.67-18.89,95.28c-12.63,29.61-30.11,55.55-52.43,77.87
				c-22.33,22.29-48.26,39.77-77.88,52.4c-29.58,12.59-61.35,18.89-95.32,18.89V1653.26z"/>
			<path fill="#FFFFFF" d="M1655.78,1651.92h-99.32v-0.64c-12.63,0-23.07-4.14-31.31-12.46c-8.24-8.17-12.38-18.15-12.38-29.79
				V340.54h-173.16v58.2c11.64,0,21.58,4.1,29.83,12.35c8.24,8.31,12.88,18.22,13.83,29.83v1210.37H1187.5
				c-31.07,0-57.74-11.18-80.07-33.51c-22.32-22.33-33.47-48.97-33.47-80.07V340.54H900.78v58.2c11.64,0,21.58,4.1,29.85,12.35
				c8.23,8.31,12.82,18.22,13.82,29.83V1465c0,33.93,6.3,65.7,18.93,95.28c12.6,29.65,30.07,55.58,52.38,77.84
				c22.3,22.33,48.02,39.84,77.14,52.44c29.12,12.63,60.61,18.89,94.61,18.89h368.96v-0.04h99.32V1651.92z"/>
		</g>
	</g>
</svg>