<?xml version="1.0" encoding="iso-8859-1"?>
<!-- Generator: Adobe Illustrator 16.0.0, SVG Export Plug-In . SVG Version: 6.00 Build 0)  -->
<!DOCTYPE svg PUBLIC "-//W3C//DTD SVG 1.1//EN" "http://www.w3.org/Graphics/SVG/1.1/DTD/svg11.dtd">
<svg version="1.1" id="logo-baseline-vertical" xmlns="http://www.w3.org/2000/svg" xmlns:xlink="http://www.w3.org/1999/xlink"
	 x="0px" y="0px" width="1920px" height="1080px" viewBox="0 0 1920 1080" style="enable-background:new 0 0 1920 1080;"
	 xml:space="preserve">
<g id="Grey">
	<path style="display:inline;fill:#9C9B9B;" d="M1328.171,985.874l-42.554-88.348l-42.955,88.348l-59.436-154.101h34.607
		l28.71,77.151l39.074-81.015l39.093,81.015l29.297-77.151h34.203L1328.171,985.874z"/>
	<path style="display:inline;fill:#9C9B9B;" d="M1439.571,892.638h71.247v28.097h-71.247v31.76h80.602v27.887h-112.773V831.573
		h112.773v27.886h-80.602V892.638z"/>
	<path style="display:inline;fill:#9C9B9B;" d="M1641.552,902.617c13.221,4.477,24.829,18.73,24.829,34.605
		c0,33.179-25.25,43.158-52.11,43.158h-64.325V831.573h61.871c28.913,0,48.449,10.784,48.449,41.325
		C1660.266,886.329,1652.539,898.141,1641.552,902.617z M1612.439,890.605c11.39,0,15.473-8.753,15.473-16.489
		c0-7.735-6.721-14.657-15.271-14.657H1582.3v31.146H1612.439z M1634.21,935.594c0-8.954-6.72-16.9-20.562-16.9H1582.3v33.801
		h31.971C1627.49,952.494,1634.21,944.346,1634.21,935.594z"/>
	<path style="display:inline;fill:#9C9B9B;" d="M790.285,310.835v-0.77V89.408c0-10.052,3.645-18.713,10.914-25.982
		c7.287-7.27,16.223-10.932,26.752-10.932V22.374h-37.666c-18.566,0-34.386,6.537-47.442,19.574
		c-13.055,13.055-19.573,28.875-19.573,47.46v221.427c0,5.036-0.275,10.547-0.751,16.552c-0.513,6.043-1.887,11.554-4.156,16.59
		c-2.252,5.035-6.024,9.301-11.279,12.798c-5.274,3.516-12.452,5.274-21.479,5.274v0.293h-78.789v29.772h78.789v0.074
		c9.522,0,16.827,1.738,21.846,5.254c4.998,3.516,8.66,7.91,10.913,13.184c2.27,5.273,3.643,11.041,4.156,17.32
		c0.476,6.281,0.751,11.939,0.751,16.938v219.925v0.771v0.731c0.476,18.604,7.14,34.167,19.957,46.71
		c12.799,12.542,28.492,18.823,47.058,18.823h37.666v-29.389c-10.529,0-19.465-3.625-26.752-10.895
		c-7.269-7.288-10.914-16.187-10.914-26.752V444.886v-0.733c0-18.567-6.518-34.405-19.573-47.46
		c-13.056-13.074-28.876-19.592-47.442-19.592c18.565,0,34.258-6.409,47.058-19.189
		C783.127,345.094,789.791,329.402,790.285,310.835z"/>
</g>
<g id="Plot">
	<g>
		<g>
			<path style="fill:#1C1C1B;" d="M274.794,1027.063c2.161,0.623,3.937,1.914,5.328,3.864c1.41,2.005,2.105,4.266,2.105,6.812
				c0,3.029-0.97,5.621-2.892,7.764c-1.941,2.151-4.266,3.24-6.977,3.24h-18.512v-42.095h15.821c2.746,0,5.071,1.07,7.012,3.222
				c1.922,2.152,2.894,4.752,2.894,7.81C279.573,1021.789,277.979,1024.912,274.794,1027.063z M255.586,1026.733h14.082
				c2.252,0,4.174-0.888,5.767-2.664c1.594-1.775,2.399-3.909,2.399-6.391c0-2.508-0.805-4.65-2.399-6.428
				c-1.592-1.784-3.515-2.672-5.767-2.672h-14.082V1026.733z M272.358,1046.802c2.234,0,4.156-0.888,5.732-2.674
				c1.612-1.758,2.399-3.891,2.399-6.39c0-2.509-0.787-4.642-2.399-6.427c-1.576-1.758-3.498-2.638-5.732-2.638h-16.772v18.128
				H272.358z"/>
			<path style="fill:#1C1C1B;" d="M353.712,1006.647l-12.781,21.706v20.389h-1.739v-20.425l-12.763-21.67h2.069l11.443,19.391h0.257
				l11.444-19.391H353.712z"/>
			<path style="fill:#1C1C1B;" d="M491.717,1027.063v0.961c0,5.971-1.885,11.052-5.695,15.254
				c-3.772,4.229-8.331,6.335-13.659,6.335c-5.364,0-9.925-2.106-13.714-6.335c-3.791-4.202-5.695-9.283-5.695-15.254
				c0-5.941,1.905-11.013,5.695-15.215c3.79-4.229,8.351-6.335,13.714-6.335c4.962,0,9.302,1.867,13.001,5.593l-1.227,1.383
				c-3.352-3.369-7.289-5.044-11.774-5.044c-4.871,0-9.045,1.923-12.505,5.758c-3.443,3.846-5.164,8.469-5.164,13.86
				c0,5.421,1.721,10.053,5.164,13.898c3.46,3.836,7.635,5.759,12.505,5.759c4.706,0,8.753-1.813,12.159-5.457
				c3.405-3.589,5.199-8.01,5.437-13.229h-16.313v-1.933H491.717z"/>
			<path style="fill:#1C1C1B;" d="M537.987,1006.647h1.739v42.095h-1.739V1006.647z"/>
			<path style="fill:#1C1C1B;" d="M603.795,1006.647l15.638,42.095h-1.869l-3.497-9.42h-23.693l-3.497,9.42h-1.869l15.674-42.095
				H603.795z M591.105,1037.381h22.248l-11.114-29.855L591.105,1037.381z"/>
			<path style="fill:#1C1C1B;" d="M693.589,1006.647v42.095h-2.692l-25.507-40.896v40.896h-1.739v-42.095h3.113l25.084,40.209
				v-40.209H693.589z"/>
			<path style="fill:#1C1C1B;" d="M758.407,1047.681c4.504,0,8.422-1.676,11.774-5.045l1.245,1.383
				c-3.698,3.727-8.038,5.594-13.019,5.594c-5.364,0-9.925-2.106-13.695-6.335c-3.792-4.202-5.695-9.283-5.695-15.254
				c0-5.941,1.903-11.013,5.695-15.215c3.771-4.229,8.331-6.335,13.695-6.335c4.981,0,9.32,1.867,13.019,5.593l-1.245,1.383
				c-3.352-3.369-7.27-5.044-11.774-5.044c-4.87,0-9.027,1.923-12.488,5.758c-3.441,3.846-5.163,8.469-5.163,13.86
				c0,5.421,1.722,10.053,5.163,13.898C749.38,1045.758,753.537,1047.681,758.407,1047.681z"/>
			<path style="fill:#1C1C1B;" d="M834.413,1006.647l15.638,42.095h-1.867l-3.497-9.42h-23.695l-3.497,9.42h-1.867l15.673-42.095
				H834.413z M821.725,1037.381h22.247l-11.115-29.855L821.725,1037.381z"/>
			<path style="fill:#1C1C1B;" d="M924.83,1020.81c0,3.626-1.099,6.784-3.294,9.477c-2.181,2.673-4.853,4.211-8.058,4.604
				l7.251,13.852h-2.014l-7.213-13.77H896.01v13.77h-1.74v-42.095h17.834c3.516,0,6.519,1.391,8.991,4.165
				C923.585,1013.569,924.83,1016.9,924.83,1020.81z M912.104,1033.041c3.04,0,5.641-1.199,7.782-3.598
				c2.143-2.39,3.205-5.265,3.205-8.634c0-3.378-1.063-6.262-3.205-8.651c-2.141-2.381-4.742-3.579-7.782-3.579H896.01v24.462
				H912.104z"/>
			<path style="fill:#1C1C1B;" d="M972.107,1006.647v40.154h21.561v1.94h-23.3v-42.095H972.107z"/>
			<path style="fill:#1C1C1B;" d="M1039.91,1043.277c-3.799-4.202-5.694-9.283-5.694-15.254c0-5.941,1.896-11.013,5.694-15.215
				c3.772-4.229,8.34-6.335,13.697-6.335c5.346,0,9.905,2.105,13.677,6.335c3.799,4.202,5.695,9.273,5.695,15.215
				c0,5.971-1.896,11.052-5.695,15.254c-3.772,4.229-8.332,6.335-13.677,6.335C1048.25,1049.612,1043.683,1047.506,1039.91,1043.277
				z M1041.119,1014.163c-3.442,3.846-5.164,8.469-5.164,13.86c0,5.421,1.721,10.053,5.164,13.898
				c3.461,3.836,7.627,5.759,12.488,5.759c4.852,0,9.009-1.923,12.468-5.759c3.443-3.846,5.164-8.478,5.164-13.898
				c0-5.392-1.721-10.015-5.164-13.86c-3.459-3.835-7.616-5.758-12.468-5.758C1048.746,1008.405,1044.58,1010.328,1041.119,1014.163
				z"/>
			<path style="fill:#1C1C1B;" d="M1191.375,1006.647c3.515,0,6.508,1.391,8.98,4.165c2.5,2.757,3.746,6.088,3.746,9.997
				c0,3.891-1.245,7.233-3.746,9.997c-2.472,2.784-5.465,4.166-8.98,4.166h-16.104v13.77h-1.74v-42.095H1191.375z
				 M1191.375,1033.041c3.038,0,5.63-1.199,7.771-3.598c2.143-2.39,3.214-5.265,3.214-8.634c0-3.378-1.071-6.262-3.214-8.651
				c-2.142-2.381-4.733-3.579-7.771-3.579h-16.104v24.462H1191.375z"/>
			<path style="fill:#1C1C1B;" d="M1263.626,1006.647l15.646,42.095h-1.867l-3.507-9.42h-23.685l-3.506,9.42h-1.867l15.673-42.095
				H1263.626z M1250.947,1037.381h22.237l-11.114-29.855L1250.947,1037.381z"/>
			<path style="fill:#1C1C1B;" d="M1325.232,1006.647v40.154h21.56v1.94h-23.3v-42.095H1325.232z"/>
			<path style="fill:#1C1C1B;" d="M1422.835,1006.647v25.954c0,4.688-1.491,8.707-4.477,12.03s-6.582,4.98-10.776,4.98
				c-4.22,0-7.817-1.657-10.803-4.98c-2.983-3.323-4.486-7.343-4.486-12.03v-25.954h1.74v25.954c0,4.166,1.327,7.719,3.981,10.648
				c2.639,2.956,5.824,4.431,9.567,4.431c3.719,0,6.913-1.475,9.559-4.431c2.638-2.93,3.956-6.482,3.956-10.648v-25.954H1422.835z"
				/>
			<path style="fill:#1C1C1B;" d="M1510.34,1006.647v42.095h-1.739v-39.577l-17.605,39.577h-2.894l-18.054-40.539v40.539h-1.739
				v-42.095h2.983l18.256,40.978l18.237-40.978H1510.34z"/>
			<path style="fill:#1C1C1B;" d="M1576.771,1027.063c2.16,0.623,3.937,1.914,5.328,3.864c1.4,2.005,2.104,4.266,2.104,6.812
				c0,3.029-0.971,5.621-2.902,7.764c-1.932,2.151-4.257,3.24-6.976,3.24h-18.502v-42.095h15.811c2.747,0,5.081,1.07,7.013,3.222
				c1.932,2.152,2.892,4.752,2.892,7.81C1581.54,1021.789,1579.957,1024.912,1576.771,1027.063z M1557.563,1026.733h14.071
				c2.251,0,4.175-0.888,5.777-2.664c1.593-1.775,2.39-3.909,2.39-6.391c0-2.508-0.796-4.65-2.39-6.428
				c-1.602-1.784-3.525-2.672-5.777-2.672h-14.071V1026.733z M1574.326,1046.802c2.243,0,4.166-0.888,5.74-2.674
				c1.603-1.758,2.398-3.891,2.398-6.39c0-2.509-0.796-4.642-2.398-6.427c-1.574-1.758-3.497-2.638-5.74-2.638h-16.763v18.128
				H1574.326z"/>
			<path style="fill:#1C1C1B;" d="M1635.666,1043.277c-3.799-4.202-5.695-9.283-5.695-15.254c0-5.941,1.896-11.013,5.695-15.215
				c3.771-4.229,8.34-6.335,13.696-6.335c5.347,0,9.905,2.105,13.678,6.335c3.799,4.202,5.694,9.273,5.694,15.215
				c0,5.971-1.896,11.052-5.694,15.254c-3.772,4.229-8.331,6.335-13.678,6.335
				C1644.006,1049.612,1639.438,1047.506,1635.666,1043.277z M1636.875,1014.163c-3.443,3.846-5.164,8.469-5.164,13.86
				c0,5.421,1.721,10.053,5.164,13.898c3.461,3.836,7.626,5.759,12.487,5.759c4.853,0,9.008-1.923,12.469-5.759
				c3.442-3.846,5.163-8.478,5.163-13.898c0-5.392-1.721-10.015-5.163-13.86c-3.461-3.835-7.616-5.758-12.469-5.758
				C1644.501,1008.405,1640.336,1010.328,1636.875,1014.163z"/>
		</g>
		<g>
			<path style="fill:#1C1C1B;" d="M283.437,980.381h-32.171V831.573h32.171v62.089l58.007-62.089h39.898l-61.266,63.106
				l63.922,85.701h-39.495l-46.62-63.317l-14.446,15.069V980.381z"/>
			<path style="fill:#1C1C1B;" d="M464.856,826.895l81.627,153.486h-35.212l-11.81-22.806h-69.413l-11.408,22.806h-35.412
				L464.856,826.895z M483.99,930.101l-19.134-38.882l-18.934,38.882H483.99z"/>
			<path style="fill:#1C1C1B;" d="M555.272,980.381V831.573h66.155c31.97,0,53.741,21.166,53.741,51.708
				c0,21.569-11.792,39.284-30.322,47.223c12.817,16.076,26.458,33.993,38.47,49.877h-38.47
				c-12.213-15.271-23.419-30.129-35.632-46.416h-21.973v46.416H555.272z M621.427,906.076c9.979,0,21.79-7.323,21.79-22.795
				c0-7.736-2.856-23.822-21.79-23.822h-34.186v46.617H621.427z"/>
			<path style="fill:#1C1C1B;" d="M813.833,980.381H703.512V831.573h32.355v120.921h77.966V980.381z"/>
			<path style="fill:#1C1C1B;" d="M837.27,980.381V831.573h32.171v148.808H837.27z"/>
			<path style="fill:#1C1C1B;" d="M965.736,859.459v120.922h-32.355V859.459h-43.359v-27.886h118.871v27.886H965.736z"/>
			<path style="fill:#1C1C1B;" d="M1017.682,905.875c0-42.342,35.834-77.15,79.999-77.15c44.384,0,80.4,34.809,80.4,77.15
				c0,42.747-36.016,77.353-80.4,77.353C1053.516,983.228,1017.682,948.622,1017.682,905.875z M1049.633,905.875
				c0,25.645,21.589,48.249,48.047,48.249c26.66,0,48.046-22.604,48.046-48.249c0-25.45-21.386-47.845-48.046-47.845
				C1071.222,858.03,1049.633,880.425,1049.633,905.875z"/>
			<path style="display:none;fill:#FFFFFF;" d="M1328.171,985.874l-42.554-88.348l-42.955,88.348l-59.436-154.101h34.607
				l28.71,77.151l39.074-81.015l39.093,81.015l29.297-77.151h34.203L1328.171,985.874z"/>
			<path style="display:none;fill:#FFFFFF;" d="M1439.571,892.638h71.247v28.097h-71.247v31.76h80.602v27.887h-112.773V831.573
				h112.773v27.886h-80.602V892.638z"/>
			<path style="display:none;fill:#FFFFFF;" d="M1641.552,902.617c13.221,4.477,24.829,18.73,24.829,34.605
				c0,33.179-25.25,43.158-52.11,43.158h-64.325V831.573h61.871c28.913,0,48.449,10.784,48.449,41.325
				C1660.266,886.329,1652.539,898.141,1641.552,902.617z M1612.439,890.605c11.39,0,15.473-8.753,15.473-16.489
				c0-7.735-6.721-14.657-15.271-14.657H1582.3v31.146H1612.439z M1634.21,935.594c0-8.954-6.72-16.9-20.562-16.9H1582.3v33.801
				h31.971C1627.49,952.494,1634.21,944.346,1634.21,935.594z"/>
		</g>
	</g>
	<g>
		<path style="fill:#1C1C1B;" d="M617.895,52.494c-16.06,0-30.011,5.786-41.803,17.321c-11.81,11.554-17.707,25.36-17.707,41.437
			v0.733v531c0,16.57,5.896,30.634,17.707,42.17c11.792,11.553,25.743,17.303,41.803,17.303v29.389
			c-17.598,0-34.021-3.26-49.347-9.778c-15.309-6.537-28.748-15.582-40.282-27.118c-11.554-11.554-20.6-24.865-27.119-39.916
			c-6.518-15.051-9.778-31.402-9.778-48.963V148.898c0-17.578,3.261-34.021,9.778-49.328c6.519-15.326,15.564-28.748,27.119-40.301
			c11.535-11.536,24.974-20.581,40.282-27.118c15.326-6.519,31.749-9.778,49.347-9.778V52.494z"/>
		<path style="fill:#1C1C1B;" d="M1318.503,701.725c16.076,0,30.01-5.786,41.821-17.32c11.792-11.555,17.688-25.36,17.688-41.42
			v-0.769V111.252c0-16.571-5.896-30.651-17.688-42.205c-11.811-11.536-25.745-17.322-41.821-17.322V22.374
			c17.578,0,34.021,3.259,49.328,9.778c15.326,6.537,28.747,15.582,40.302,27.118c11.553,11.554,20.6,24.975,27.135,40.301
			c6.52,15.308,9.778,31.512,9.778,48.559v457.209c0,17.541-3.259,33.984-9.778,49.31c-6.535,15.325-15.582,28.747-27.135,40.301
			c-11.555,11.536-24.976,20.581-40.302,27.118c-15.307,6.519-31.75,9.778-49.328,9.778V701.725z"/>
		<path style="display:none;fill:#FFFFFF;" d="M790.285,310.835v-0.77V89.408c0-10.052,3.645-18.713,10.914-25.982
			c7.287-7.27,16.223-10.932,26.752-10.932V22.374h-37.666c-18.566,0-34.386,6.537-47.442,19.574
			c-13.055,13.055-19.573,28.875-19.573,47.46v221.427c0,5.036-0.275,10.547-0.751,16.552c-0.513,6.043-1.887,11.554-4.156,16.59
			c-2.252,5.035-6.024,9.301-11.279,12.798c-5.274,3.516-12.452,5.274-21.479,5.274v0.293h-78.789v29.772h78.789v0.074
			c9.522,0,16.827,1.738,21.846,5.254c4.998,3.516,8.66,7.91,10.913,13.184c2.27,5.273,3.643,11.041,4.156,17.32
			c0.476,6.281,0.751,11.939,0.751,16.938v219.925v0.771v0.731c0.476,18.604,7.14,34.167,19.957,46.71
			c12.799,12.542,28.492,18.823,47.058,18.823h37.666v-29.389c-10.529,0-19.465-3.625-26.752-10.895
			c-7.269-7.288-10.914-16.187-10.914-26.752V444.886v-0.733c0-18.567-6.518-34.405-19.573-47.46
			c-13.056-13.074-28.876-19.592-47.442-19.592c18.565,0,34.258-6.409,47.058-19.189
			C783.127,345.094,789.791,329.402,790.285,310.835z"/>
		<path style="fill:#1C1C1B;" d="M1295.157,701.029h-51.396v-0.33c-6.537,0-11.939-2.143-16.205-6.445
			c-4.267-4.229-6.408-9.394-6.408-15.418V22.374h-89.612v30.121c6.024,0,11.17,2.124,15.436,6.39
			c4.266,4.303,6.664,9.43,7.159,15.436v626.379H1052.82c-16.077,0-29.883-5.786-41.438-17.34
			c-11.552-11.554-17.32-25.342-17.32-41.437V22.374h-89.629v30.121c6.023,0,11.169,2.124,15.453,6.39
			c4.248,4.303,6.629,9.43,7.142,15.436v529.975c0,17.561,3.259,34.003,9.796,49.311c6.518,15.344,15.564,28.766,27.117,40.281
			c11.536,11.555,24.849,20.618,39.917,27.137c15.069,6.536,31.365,9.777,48.962,9.777h190.941v-0.018h51.396V701.029z"/>
	</g>
</g>
</svg>
