<?xml version="1.0" encoding="utf-8"?>
<!DOCTYPE svg PUBLIC "-//W3C//DTD SVG 1.1//EN" "http://www.w3.org/Graphics/SVG/1.1/DTD/svg11.dtd">
<svg version="1.1" xmlns="http://www.w3.org/2000/svg" xmlns:xlink="http://www.w3.org/1999/xlink" x="0px" y="0px" width="2048px"
	 height="2048px" viewBox="0 0 2048 2048" enable-background="new 0 0 2048 2048" xml:space="preserve">
	<g id="Backgrounds_Circle">
		<circle id="light" fill="#FFFFFF" cx="1026" cy="1026" r="1024"/>
	</g>
	<g id="Logos_Circle">
		<path id="Blue" fill="#007CC0" d="M730.44,916.65v-1.27V551.29c0-16.59,6-30.88,18.01-42.87
			c12.02-12,26.75-18.04,44.14-18.04v-49.7h-62.15c-30.65,0-56.75,10.79-78.29,32.3c-21.54,21.54-32.3,47.64-32.3,78.31v365.36
			c0,8.31-0.44,17.4-1.24,27.31c-0.85,9.97-3.11,19.06-6.84,27.37c-3.73,8.31-9.94,15.35-18.63,21.12c-8.7,5.8-20.53,8.7-35.44,8.7
			v0.48h-130v49.12h130v0.12c15.73,0,27.77,2.87,36.04,8.67c8.26,5.8,14.29,13.05,18.02,21.75c3.73,8.7,6,18.22,6.84,28.58
			c0.8,10.36,1.24,19.7,1.24,27.95v362.88v1.27v1.21c0.8,30.7,11.8,56.38,32.93,77.07c21.13,20.7,47.01,31.06,77.66,31.06h62.15
			v-48.49c-17.39,0-32.12-5.98-44.14-17.98c-12.01-12.02-18.01-26.71-18.01-44.14v-362.88v-1.21c0-30.63-10.77-56.77-32.3-78.31
			c-21.56-21.58-47.66-32.33-78.29-32.33c30.64,0,56.54-10.57,77.66-31.66C718.63,973.17,729.61,947.28,730.44,916.65z"/>
		<g id="Tracé">
			<path id="_x3C_Tracé_x3E_" fill="#FFFFFF" d="M445.98,490.38c-26.5,0-49.5,9.55-68.96,28.58
				c-19.49,19.06-29.22,41.84-29.22,68.37v1.21v876.16c0,27.34,9.73,50.54,29.22,69.58c19.46,19.06,42.46,28.55,68.96,28.55v48.49
				c-29.02,0-56.12-5.38-81.41-16.13c-25.26-10.79-47.43-25.71-66.48-44.75c-19.06-19.06-33.99-41.03-44.73-65.86
				c-10.77-24.83-16.15-51.81-16.15-80.79V649.45c0-29,5.38-56.14,16.15-81.39c10.74-25.29,25.66-47.43,44.73-66.5
				c19.05-19.03,41.22-33.96,66.48-44.75c25.29-10.76,52.39-16.13,81.41-16.13V490.38z"/>
			<path id="_x3C_Tracé_x3E_" fill="#FFFFFF" d="M1601.99,1561.62c26.53,0,49.52-9.55,69.01-28.58
				c19.46-19.06,29.18-41.84,29.18-68.34v-1.27V587.33c0-27.34-9.73-50.58-29.18-69.64c-19.49-19.03-42.48-28.58-69.01-28.58v-48.43
				c29.01,0,56.13,5.38,81.39,16.13c25.29,10.79,47.43,25.71,66.5,44.75c19.06,19.06,33.99,41.21,44.77,66.5
				c10.75,25.26,16.13,52,16.13,80.12v754.4c0,28.94-5.38,56.07-16.13,81.36c-10.79,25.29-25.71,47.43-44.77,66.5
				c-19.07,19.03-41.21,33.96-66.5,44.75c-25.26,10.75-52.39,16.13-81.39,16.13V1561.62z"/>
			<path fill="#FFFFFF" d="M1563.47,1560.47h-84.81v-0.54c-10.79,0-19.7-3.54-26.74-10.64c-7.04-6.98-10.58-15.5-10.58-25.44V440.68
				H1293.5v49.7c9.94,0,18.43,3.5,25.47,10.54c7.04,7.1,11,15.56,11.81,25.47v1033.53h-167.16c-26.53,0-49.31-9.55-68.37-28.61
				c-19.06-19.06-28.58-41.81-28.58-68.37V440.68H918.78v49.7c9.94,0,18.43,3.5,25.49,10.54c7.02,7.1,10.95,15.56,11.8,25.47v874.46
				c0,28.97,5.38,56.1,16.17,81.36c10.75,25.32,25.68,47.46,44.73,66.47c19.04,19.06,41.01,34.02,65.87,44.78
				c24.86,10.78,51.75,16.13,80.79,16.13h315.05v-0.03h84.81V1560.47z"/>
		</g>
	</g>
</svg>